<?xml version="1.0" encoding="utf-8"?>
<!-- Generator: Adobe Illustrator 22.1.0, SVG Export Plug-In . SVG Version: 6.00 Build 0)  -->
<svg version="1.1" id="Layer_1" xmlns="http://www.w3.org/2000/svg" xmlns:xlink="http://www.w3.org/1999/xlink" x="0px" y="0px"
	 viewBox="0 0 500 7000" style="enable-background:new 0 0 500 7000;" xml:space="preserve">
<style type="text/css">
	.st0{fill:#FFFFFF;}
	.st1{fill:#008D9C;}
	.st2{fill:none;}
</style>
<g id="Layer_1_1_">
	<title>low-logo</title>
	<path class="st0" d="M177.2,6800.1v6.3H82.9v-6.3H97V-13.5h22.7v6799.6h43.4v14H177.2z"/>
	<path class="st0" d="M287.4,6800.1v6.3H167.2v-6.3h32.5c-7.9-4.5-14.4-10.9-18.9-18.8c-4.6-8.1-7-17.2-6.9-26.5
		c0-14.9,5.1-27.4,15.4-37.5s23-15.1,38-15.1s27.7,5,38,15.1s15.4,22.5,15.4,37.5c0.2,18.6-9.6,35.9-25.8,45.3H287.4z M257.6,6754.9
		c0.2-8.6-2.9-16.9-8.7-23.2c-10.6-11.9-28.8-12.9-40.7-2.3c-0.8,0.7-1.6,1.5-2.3,2.3c-11.6,13.3-11.6,33.1,0,46.4
		c10.7,11.9,29.1,12.8,41,2c0.7-0.6,1.4-1.3,2-2C254.7,6771.8,257.8,6763.5,257.6,6754.9z"/>
	<path class="st0" d="M435.8,6800.1v6.3h-52l-22.3-70.8l-22.1,70.8h-52v-6.3h32.9l-33.3-95.5h24.6l20.1,58.5l18-58.5h23.7l17.9,58.5
		l20.2-58.5h24.6l-33.3,95.5H435.8z"/>
</g>
<g id="Design">
	<g>
		<path class="st1" d="M88.9,6936c-0.6,0-1.1-0.2-1.4-0.6s-0.5-1.3-0.5-2.7v-106.2c0-1.1,0.2-1.9,0.5-2.3c0.3-0.4,0.8-0.5,1.4-0.5
			h25.5c3.7,0,7.1,0.5,10,1.6s5.5,2.9,8,5.5c2.4,2.6,4.4,6,6,10.2c1.6,4.2,2.8,9.5,3.7,15.8c0.9,6.3,1.3,13.8,1.3,22.4
			c0,7.1-0.2,13.4-0.6,18.9c-0.4,5.5-1,10.2-1.8,14.2s-1.8,7.4-3.1,10.2c-1.3,2.8-2.7,5-4.3,6.8c-1.5,1.7-3.4,3.1-5.6,4.1
			c-2.2,1-4.5,1.7-6.8,2c-2.3,0.3-5,0.5-8.2,0.5H88.9V6936z M100.6,6926h11.9c4.8,0,8.5-1.3,11-4c2.5-2.7,4.4-7.3,5.5-13.9
			c1.1-6.6,1.7-16.2,1.7-28.7c0-11.3-0.7-20.3-2-27c-1.3-6.7-3.2-11.5-5.8-14.4c-2.6-2.9-5.9-4.3-10.1-4.3h-12.4
			c-0.6,0-0.9,0.5-0.9,1.6v89C99.6,6925.5,100,6926,100.6,6926z"/>
		<path class="st1" d="M160.7,6936c-0.4,0-0.7-0.1-1-0.2c-0.2-0.1-0.4-0.4-0.6-0.8c-0.2-0.4-0.3-1.1-0.3-2.1v-106.2
			c0-1.2,0.2-2.1,0.5-2.5s0.8-0.6,1.4-0.6h39c0.4,0,0.7,0,1,0.1s0.4,0.3,0.6,0.8c0.2,0.4,0.3,1.1,0.3,1.9v4.4c0,0.9-0.1,1.5-0.3,2
			c-0.2,0.4-0.4,0.7-0.6,0.7c-0.2,0.1-0.5,0.1-1,0.1h-27.5c-0.6,0-0.9,0.8-0.9,2.4v35.5c0,0.4,0.1,0.7,0.2,1.1
			c0.2,0.4,0.3,0.6,0.4,0.6h22.9c0.6,0,1.1,0.2,1.4,0.6c0.3,0.4,0.5,1.2,0.5,2.4v4.3c0,1.2-0.2,2.1-0.5,2.5s-0.8,0.7-1.4,0.7H172
			c-0.2,0-0.3,0.2-0.5,0.7s-0.2,0.9-0.2,1.3v40.1H200c0.5,0,0.8,0,1,0.1s0.4,0.3,0.6,0.7c0.2,0.4,0.3,1.1,0.3,2v4.4
			c0,1.2-0.1,2-0.4,2.3c-0.3,0.3-0.8,0.5-1.4,0.5h-39.4L160.7,6936L160.7,6936z"/>
		<path class="st1" d="M262,6906c0,9.2-2.4,16.6-7.1,22.4c-4.8,5.8-11.1,8.7-19,8.7c-10.9,0-19.4-4.8-25.5-14.3
			c-0.3-0.4-0.4-0.9-0.4-1.6c0-1.5,0.6-3,1.9-4.7c1.3-1.7,2.5-2.5,3.6-2.5c0.5,0,0.9,0.2,1.2,0.6c5.6,7.8,11.9,11.6,19.1,11.6
			c4.5,0,8-1.8,10.5-5.3s3.8-8.1,3.8-13.7c0-4.9-0.9-8.9-2.8-11.8c-1.9-2.9-4.7-5.7-8.6-8.3l-10.3-6.9c-2.1-1.4-4-2.8-5.6-4.3
			s-3.2-3.3-4.8-5.5c-1.6-2.2-2.8-4.8-3.7-7.9c-0.9-3.1-1.3-6.4-1.3-10.1c0-8.9,2.2-16.1,6.7-21.7c4.5-5.5,10.4-8.3,17.8-8.3
			c9.4,0,16.7,3.4,22.1,10.2c0.5,0.6,0.7,1.4,0.7,2.2c0,1.6-0.6,3.1-1.9,4.7c-1.3,1.6-2.4,2.3-3.3,2.3c-0.3,0-0.5-0.1-0.7-0.3
			c-4.4-5.5-9.5-8.2-15.3-8.2c-4.2,0-7.6,1.7-10.3,5c-2.6,3.3-3.9,7.5-3.9,12.4c0,3.2,0.5,6,1.6,8.5s2.3,4.4,3.7,5.8
			s3.2,2.8,5.5,4.3l10.2,6.6C256.7,6883.1,262,6893,262,6906z"/>
		<path class="st1" d="M276.9,6936c-0.4,0-0.7-0.1-1-0.2c-0.2-0.1-0.4-0.5-0.6-1.1s-0.3-1.4-0.3-2.4v-104.9c0-1.5,0.2-2.5,0.5-3
			s0.8-0.7,1.4-0.7h8.7c0.7,0,1.2,0.2,1.5,0.7c0.3,0.4,0.5,1.4,0.5,3v104.9c0,1.6-0.2,2.6-0.5,3s-0.8,0.7-1.5,0.7L276.9,6936
			L276.9,6936z"/>
		<path class="st1" d="M356.6,6937.3c-1.7,0-2.9-1.5-3.4-4.6c0-0.2-0.3-2.3-0.8-6.4c-0.5-4-0.8-6.5-0.8-7.4c0-0.5-0.1-0.7-0.2-0.7
			c-0.2,0-0.4,0.2-0.5,0.6c-0.9,5.8-2.8,10.3-5.9,13.5c-3,3.2-6.9,4.8-11.6,4.8c-2.3,0-4.4-0.2-6.2-0.5c-1.9-0.3-3.9-1-6-2
			s-4-2.3-5.7-4c-1.6-1.7-3.2-4-4.8-6.9s-2.8-6.3-3.9-10.3c-1-3.9-1.8-8.8-2.5-14.5c-0.6-5.7-0.9-12.2-0.9-19.3
			c0-7.4,0.4-14.1,1.1-19.9c0.7-5.9,1.7-10.8,2.8-14.7c1.2-4,2.7-7.4,4.6-10.2c1.9-2.9,3.8-5.1,5.6-6.6s4.1-2.8,6.7-3.7
			s5-1.4,7.1-1.7c2.1-0.3,4.6-0.4,7.4-0.4c4.6,0,8.9,0.8,12.9,2.4c0.1,0.1,0.2,0.1,0.4,0.3c0.2,0.1,0.3,0.3,0.4,0.4
			c0.1,0.2,0.2,0.4,0.2,0.7v7.7c0,0.6-0.2,0.9-0.5,0.9l-0.8-0.2c-0.6-0.2-1.3-0.3-2.1-0.5c-0.9-0.2-1.8-0.4-2.8-0.6
			s-2.1-0.4-3.4-0.5c-1.2-0.2-2.4-0.2-3.4-0.2c-2.9,0-5.3,0.2-7.3,0.7s-4.1,1.7-6.3,3.6c-2.2,1.9-4,4.5-5.3,7.7
			c-1.4,3.3-2.5,7.9-3.4,13.7c-0.9,5.8-1.3,12.9-1.3,21.2c0,7.8,0.3,14.6,1,20.3c0.7,5.8,1.6,10.3,2.7,13.7s2.5,6.1,4.1,8.1
			s3.3,3.4,5,4.1s3.6,1,5.7,1c2.7,0,4.9-0.8,6.7-2.4c1.8-1.6,3.1-4,4.1-7.3c0.9-3.3,1.6-6.8,1.9-10.5c0.3-3.8,0.5-8.3,0.5-13.7
			c0-2.9-0.2-4.3-0.7-4.3h-10.9c-0.5,0-0.9-0.1-1.2-0.2c-0.3-0.1-0.5-0.4-0.8-0.9c-0.2-0.5-0.4-1.2-0.4-2.1v-4.7
			c0-1.3,0.2-2.1,0.5-2.5c0.4-0.4,0.9-0.6,1.6-0.6h20.9c1.4,0,2,1.4,2,4.1v50.4c0,1.6-0.2,2.8-0.7,3.6
			C357.7,6936.9,357.2,6937.3,356.6,6937.3z"/>
		<path class="st1" d="M375.8,6936c-1.3,0-2-1.4-2-4.1v-104.2c0-1.6,0.2-2.6,0.5-3.2c0.3-0.5,0.8-0.8,1.5-0.8h8.7
			c0.9,0,1.7,0.9,2.4,2.6l30.5,78.3c0.1,0.2,0.2,0.1,0.4-0.4c0.1-0.2,0.2-0.4,0.2-0.6v-75.9c0-1.6,0.2-2.6,0.5-3.2
			c0.3-0.5,0.8-0.8,1.5-0.8h7.1c1.2,0,1.9,1.3,1.9,4v104.7c0,1-0.1,1.8-0.3,2.4c-0.2,0.5-0.4,0.9-0.6,1s-0.6,0.2-1,0.2h-6.3
			c-0.4,0-0.9-0.3-1.6-1c-0.6-0.7-1.1-1.4-1.4-2.3l-32.2-80.9c-0.1-0.3-0.3-0.2-0.5,0.3c-0.1,0.2-0.1,0.3-0.1,0.5v79.3
			c0,1.6-0.2,2.6-0.5,3.2c-0.3,0.6-0.8,0.9-1.5,0.9L375.8,6936L375.8,6936z"/>
	</g>
	<rect x="649" y="6499.9" class="st2" width="4" height="1"/>
</g>
</svg>
