<?xml version="1.0" encoding="utf-8"?>
<!-- Generator: Adobe Illustrator 16.0.4, SVG Export Plug-In . SVG Version: 6.00 Build 0)  -->
<!DOCTYPE svg PUBLIC "-//W3C//DTD SVG 1.1//EN" "http://www.w3.org/Graphics/SVG/1.1/DTD/svg11.dtd">
<svg version="1.1" id="Layer_1" xmlns="http://www.w3.org/2000/svg" xmlns:xlink="http://www.w3.org/1999/xlink" x="0px" y="0px"
	 width="81.363px" height="49.417px" viewBox="335.137 558.333 81.363 49.417"
	 enable-background="new 335.137 558.333 81.363 49.417" xml:space="preserve">
<g id="Layer_1_1_">
	<title>low-logo</title>
	<path fill="#FFFFFF" d="M360.251,581.875v1.062h-15.909v-1.062h2.379v-25.292h3.829v22.929h7.322v2.363H360.251z"/>
	<path fill="#FFFFFF" d="M378.842,581.875v1.062h-20.278v-1.062h5.483c-1.333-0.76-2.43-1.839-3.188-3.174
		c-0.776-1.366-1.182-2.899-1.165-4.47c0-2.514,0.86-4.622,2.598-6.325c1.738-1.704,3.881-2.548,6.411-2.548
		s4.673,0.844,6.411,2.548c1.737,1.703,2.597,3.795,2.597,6.325c0.034,3.138-1.619,6.057-4.351,7.644H378.842z M373.814,574.249
		c0.034-1.451-0.488-2.852-1.467-3.914c-1.788-2.007-4.859-2.177-6.866-0.389c-0.135,0.119-0.27,0.253-0.388,0.389
		c-1.957,2.244-1.957,5.583,0,7.828c1.806,2.007,4.909,2.159,6.917,0.337c0.118-0.102,0.236-0.219,0.337-0.337
		C373.326,577.1,373.848,575.7,373.814,574.249z"/>
	<path fill="#FFFFFF" d="M403.877,581.875v1.062h-8.771l-3.763-11.945l-3.728,11.945h-8.773v-1.062h5.551l-5.619-16.111h4.151
		l3.39,9.868l3.038-9.868h3.999l3.019,9.868l3.409-9.868h4.148l-5.617,16.111H403.877z"/>
</g>
<g id="Design">
	<g>
		<path fill="#008D9C" d="M345.354,604.8c-0.101,0-0.185-0.033-0.235-0.1c-0.051-0.067-0.085-0.221-0.085-0.456v-17.917
			c0-0.185,0.034-0.32,0.085-0.388c0.051-0.068,0.135-0.085,0.235-0.085h4.302c0.625,0,1.198,0.085,1.688,0.271
			c0.489,0.185,0.928,0.488,1.349,0.927c0.405,0.439,0.743,1.013,1.013,1.721c0.27,0.709,0.472,1.604,0.624,2.666
			c0.151,1.063,0.219,2.327,0.219,3.778c0,1.198-0.034,2.262-0.102,3.188c-0.067,0.929-0.169,1.721-0.304,2.396
			c-0.134,0.676-0.303,1.249-0.522,1.722c-0.22,0.472-0.455,0.843-0.726,1.146c-0.252,0.289-0.574,0.524-0.945,0.694
			c-0.37,0.167-0.758,0.286-1.146,0.337c-0.388,0.049-0.843,0.083-1.383,0.083h-4.067V604.8z M347.329,603.113h2.008
			c0.81,0,1.434-0.219,1.856-0.675c0.421-0.456,0.743-1.231,0.927-2.346c0.186-1.111,0.287-2.732,0.287-4.841
			c0-1.907-0.118-3.424-0.337-4.555c-0.22-1.131-0.54-1.94-0.979-2.429c-0.438-0.49-0.995-0.726-1.704-0.726h-2.092
			c-0.102,0-0.152,0.083-0.152,0.27v15.015C347.16,603.028,347.228,603.113,347.329,603.113z"/>
		<path fill="#008D9C" d="M357.467,604.8c-0.067,0-0.118-0.017-0.168-0.033c-0.033-0.018-0.067-0.066-0.101-0.134
			c-0.034-0.068-0.051-0.188-0.051-0.354v-17.917c0-0.201,0.034-0.354,0.085-0.422c0.051-0.068,0.135-0.102,0.235-0.102h6.58
			c0.067,0,0.118,0,0.169,0.017c0.05,0.017,0.067,0.051,0.101,0.136c0.034,0.068,0.051,0.185,0.051,0.32v0.742
			c0,0.153-0.017,0.253-0.051,0.338c-0.034,0.067-0.068,0.118-0.101,0.118c-0.034,0.018-0.085,0.018-0.169,0.018h-4.639
			c-0.102,0-0.152,0.134-0.152,0.405v5.988c0,0.067,0.017,0.116,0.034,0.185c0.034,0.067,0.051,0.102,0.068,0.102h3.863
			c0.102,0,0.186,0.034,0.237,0.102c0.051,0.068,0.083,0.202,0.083,0.405v0.726c0,0.201-0.033,0.354-0.083,0.42
			c-0.051,0.068-0.135,0.119-0.237,0.119h-3.846c-0.034,0-0.051,0.034-0.085,0.118c-0.034,0.083-0.034,0.151-0.034,0.219v6.766
			h4.842c0.084,0,0.136,0,0.168,0.017c0.034,0.017,0.068,0.051,0.102,0.118c0.034,0.066,0.051,0.186,0.051,0.338v0.742
			c0,0.202-0.017,0.338-0.068,0.389c-0.051,0.049-0.135,0.083-0.236,0.083h-6.647V604.8L357.467,604.8z"/>
		<path fill="#008D9C" d="M374.557,599.738c0,1.553-0.405,2.803-1.196,3.78c-0.811,0.979-1.873,1.468-3.207,1.468
			c-1.838,0-3.272-0.81-4.302-2.412c-0.05-0.067-0.067-0.152-0.067-0.271c0-0.253,0.101-0.506,0.32-0.794
			c0.219-0.286,0.422-0.42,0.607-0.42c0.084,0,0.152,0.034,0.203,0.1c0.944,1.317,2.007,1.958,3.222,1.958
			c0.759,0,1.35-0.304,1.772-0.896c0.421-0.59,0.641-1.366,0.641-2.31c0-0.827-0.152-1.502-0.472-1.99
			c-0.321-0.49-0.793-0.963-1.451-1.402l-1.738-1.162c-0.354-0.237-0.675-0.473-0.944-0.726c-0.27-0.253-0.54-0.558-0.81-0.929
			c-0.27-0.371-0.472-0.809-0.624-1.332c-0.151-0.522-0.219-1.08-0.219-1.704c0-1.502,0.371-2.717,1.13-3.661
			c0.759-0.927,1.754-1.4,3.003-1.4c1.586,0,2.817,0.573,3.728,1.721c0.084,0.102,0.119,0.237,0.119,0.371
			c0,0.271-0.102,0.524-0.321,0.793c-0.218,0.27-0.405,0.389-0.556,0.389c-0.051,0-0.085-0.017-0.119-0.051
			c-0.743-0.927-1.603-1.383-2.582-1.383c-0.708,0-1.281,0.286-1.737,0.844c-0.439,0.556-0.658,1.265-0.658,2.092
			c0,0.539,0.083,1.012,0.27,1.434c0.186,0.421,0.388,0.743,0.625,0.979c0.235,0.235,0.54,0.473,0.928,0.726l1.72,1.113
			C373.664,595.876,374.557,597.547,374.557,599.738z"/>
		<path fill="#008D9C" d="M377.07,604.8c-0.068,0-0.117-0.017-0.167-0.033c-0.034-0.018-0.068-0.083-0.102-0.186
			c-0.034-0.102-0.051-0.237-0.051-0.404V586.48c0-0.255,0.034-0.422,0.085-0.507s0.136-0.119,0.235-0.119h1.468
			c0.119,0,0.203,0.034,0.252,0.119c0.051,0.067,0.084,0.235,0.084,0.507v17.696c0,0.269-0.034,0.438-0.084,0.507
			c-0.049,0.065-0.134,0.116-0.252,0.116H377.07L377.07,604.8z"/>
		<path fill="#008D9C" d="M390.517,605.021c-0.288,0-0.49-0.254-0.575-0.776c0-0.034-0.051-0.388-0.134-1.08
			c-0.084-0.674-0.135-1.097-0.135-1.249c0-0.083-0.017-0.117-0.034-0.117c-0.034,0-0.068,0.034-0.085,0.101
			c-0.15,0.979-0.471,1.737-0.995,2.278c-0.507,0.54-1.165,0.81-1.956,0.81c-0.388,0-0.743-0.033-1.048-0.085
			c-0.32-0.051-0.658-0.169-1.012-0.337c-0.354-0.17-0.675-0.388-0.961-0.675c-0.27-0.286-0.539-0.675-0.811-1.164
			c-0.27-0.49-0.471-1.063-0.658-1.737c-0.167-0.658-0.303-1.485-0.422-2.446c-0.1-0.963-0.151-2.058-0.151-3.256
			c0-1.25,0.068-2.378,0.185-3.358c0.119-0.995,0.287-1.822,0.473-2.479c0.202-0.675,0.456-1.248,0.776-1.721
			c0.32-0.49,0.641-0.859,0.944-1.113c0.303-0.253,0.691-0.472,1.13-0.624s0.844-0.235,1.198-0.286
			c0.354-0.051,0.775-0.068,1.248-0.068c0.776,0,1.502,0.136,2.177,0.405c0.017,0.018,0.034,0.018,0.067,0.051
			c0.034,0.018,0.051,0.049,0.068,0.066c0.015,0.034,0.032,0.067,0.032,0.118v1.301c0,0.1-0.032,0.15-0.083,0.15l-0.136-0.034
			c-0.102-0.033-0.218-0.051-0.354-0.084c-0.153-0.032-0.304-0.066-0.473-0.101c-0.167-0.033-0.354-0.067-0.573-0.085
			c-0.202-0.033-0.405-0.033-0.573-0.033c-0.49,0-0.895,0.033-1.232,0.118c-0.337,0.083-0.691,0.287-1.063,0.607
			c-0.371,0.32-0.674,0.759-0.893,1.298c-0.237,0.558-0.422,1.334-0.575,2.312c-0.151,0.978-0.219,2.176-0.219,3.576
			c0,1.315,0.051,2.463,0.168,3.424c0.119,0.979,0.271,1.737,0.456,2.312c0.185,0.572,0.422,1.028,0.691,1.366
			c0.27,0.337,0.558,0.572,0.844,0.691c0.287,0.118,0.607,0.17,0.961,0.17c0.456,0,0.827-0.136,1.131-0.405
			c0.303-0.271,0.522-0.675,0.691-1.232c0.151-0.556,0.27-1.147,0.32-1.771c0.051-0.641,0.085-1.4,0.085-2.311
			c0-0.489-0.034-0.726-0.119-0.726h-1.839c-0.083,0-0.151-0.017-0.202-0.033c-0.051-0.018-0.085-0.068-0.136-0.153
			c-0.034-0.085-0.068-0.201-0.068-0.354v-0.794c0-0.219,0.034-0.354,0.085-0.42c0.068-0.068,0.153-0.102,0.27-0.102h3.527
			c0.236,0,0.337,0.235,0.337,0.691v8.502c0,0.27-0.034,0.474-0.119,0.607C390.702,604.953,390.617,605.021,390.517,605.021z"/>
		<path fill="#008D9C" d="M393.755,604.8c-0.219,0-0.337-0.235-0.337-0.691v-17.579c0-0.27,0.034-0.438,0.084-0.539
			c0.051-0.085,0.136-0.136,0.253-0.136h1.468c0.153,0,0.288,0.152,0.405,0.439l5.146,13.209c0.018,0.034,0.035,0.018,0.068-0.067
			c0.018-0.034,0.032-0.066,0.032-0.101v-12.806c0-0.27,0.034-0.438,0.085-0.539c0.051-0.085,0.135-0.136,0.254-0.136h1.197
			c0.203,0,0.32,0.221,0.32,0.675v17.664c0,0.17-0.018,0.304-0.051,0.405c-0.033,0.085-0.066,0.15-0.101,0.168
			c-0.034,0.017-0.102,0.033-0.169,0.033h-1.063c-0.067,0-0.151-0.051-0.27-0.167c-0.102-0.119-0.187-0.238-0.235-0.389
			l-5.433-13.648c-0.017-0.051-0.051-0.034-0.085,0.051c-0.017,0.034-0.017,0.051-0.017,0.085v13.377
			c0,0.27-0.034,0.439-0.084,0.541c-0.051,0.1-0.134,0.15-0.252,0.15H393.755L393.755,604.8z"/>
	</g>
	<rect x="439.844" y="531.23" fill="none" width="0.676" height="0.168"/>
</g>
</svg>
